# xmcd
#
# Track frame offsets:
#	182
#	12252
#	24155
#	40937
#	52790
#	67405
#	81570
#	94077
#	112040
#	125420
#	136800
#	150415
#	162440
#	179592
#	195300
#	206287
#	219275
#	229545
#	249065
#	264637
#	274195
#	284902
#	298940
#	312250
#	325067
#
# Disc length: 4496 seconds
#
# Revision: 1
# Processed by: cddbd v1.5.2PL0 Copyright (c) Steve Scherf et al.
# Submitted via: audiograbber 1.83.01
#
DISCID=68118e19
DTITLE=Otis Redding - The Best Of Otis Redding
DYEAR=1972
DGENRE=Soul
TTITLE0=Shake
TTITLE1=Ole Man Trouble
TTITLE2=Good To Me
TTITLE3=I Can't Turn You Loose
TTITLE4=I've Been Loving You Too Long (To Stop Now)
TTITLE5=Tell The Truth
TTITLE6=(I Can't Get No) Satisfaction
TTITLE7=Cigarettes And Coffee
TTITLE8=Down In The Alley
TTITLE9=These Arms Of Mine
TTITLE10=Tramp
TTITLE11=Fa-Fa-Fa-Fa-Fa (Sad Song)
TTITLE12=Try A Little Tenderness
TTITLE13=Rock Me Baby
TTITLE14=That's How Strong My Love Is
TTITLE15=My Girl
TTITLE16=Love Man
TTITLE17=A Change Is Gonna Come
TTITLE18=Just One More Day
TTITLE19=Respect
TTITLE20=Pain In My Heart
TTITLE21=My Lover's Prayer
TTITLE22=Chain Gang
TTITLE23=You Don't Miss Your Water
TTITLE24=(Sittin' On) The Dock Of The Bay
EXTD=YEAR: 1972
EXTT0=
EXTT1=
EXTT2=
EXTT3=
EXTT4=
EXTT5=
EXTT6=
EXTT7=
EXTT8=
EXTT9=
EXTT10=
EXTT11=
EXTT12=
EXTT13=
EXTT14=
EXTT15=
EXTT16=
EXTT17=
EXTT18=
EXTT19=
EXTT20=
EXTT21=
EXTT22=
EXTT23=
EXTT24=
PLAYORDER=
